<?xml version="1.0" standalone="no"?>
<!DOCTYPE svg PUBLIC "-//W3C//DTD SVG 20010904//EN"
 "http://www.w3.org/TR/2001/REC-SVG-20010904/DTD/svg10.dtd">
<svg version="1.0" xmlns="http://www.w3.org/2000/svg"
 width="50" height="50" viewBox="0 0 447.000000 546.000000"
 preserveAspectRatio="xMidYMid meet">

<g transform="translate(0.000000,546.000000) scale(0.100000,-0.100000)"
fill="#000000" stroke="none">
<path d="M2015 5286 c-152 -23 -431 -103 -527 -152 -350 -178 -620 -405 -825
-693 -52 -72 -42 -131 20 -131 33 0 74 38 142 130 56 76 216 241 305 314 78
65 237 171 326 218 138 74 293 124 534 175 123 26 487 26 615 -1 139 -28 282
-66 354 -93 69 -26 211 -95 245 -119 27 -18 107 -18 132 1 10 8 15 15 9 15 -5
0 -4 4 4 9 12 7 12 13 3 24 -7 7 -10 16 -7 19 10 10 -32 37 -140 93 -140 72
-302 128 -480 167 -130 28 -157 30 -380 34 -164 2 -269 -1 -330 -10z"/>
<path d="M3285 4723 c-77 -17 -100 -48 -67 -92 19 -26 21 -26 143 -26 117 0
124 -1 124 -20 0 -13 -21 -34 -62 -62 -34 -22 -95 -66 -135 -96 -40 -30 -98
-72 -129 -93 -51 -35 -158 -112 -410 -294 -49 -36 -158 -114 -241 -175 -83
-60 -177 -126 -207 -147 -31 -21 -97 -68 -146 -105 -50 -38 -155 -115 -233
-171 -78 -57 -147 -112 -152 -122 -15 -28 -12 -55 8 -73 36 -32 73 -21 170 51
51 37 117 85 148 107 31 22 94 67 139 100 46 33 111 80 146 105 34 25 108 79
164 120 55 41 123 91 150 110 28 19 111 79 185 134 203 149 278 204 385 281
54 39 152 111 217 160 66 50 126 94 134 100 27 19 37 -10 35 -105 -2 -106 10
-130 64 -130 38 0 55 17 58 57 1 15 6 31 11 35 6 4 5 12 -3 21 -9 12 -9 16 1
19 11 4 11 8 0 20 -10 13 -10 17 0 20 11 4 11 8 0 20 -10 13 -10 17 0 20 11 4
11 8 0 20 -10 13 -10 17 0 20 11 4 11 8 0 20 -10 13 -10 17 0 20 11 4 11 8 0
20 -10 13 -10 17 0 20 11 4 11 8 0 20 -10 13 -10 17 0 20 10 4 11 8 1 20 -7 8
-10 18 -6 21 3 4 0 13 -7 22 -11 13 -47 15 -239 14 -124 -1 -235 -3 -246 -6z"/>
<path d="M4034 4180 c-44 -18 -48 -81 -11 -175 74 -185 109 -490 88 -758 -10
-128 -41 -285 -82 -417 -27 -84 -150 -334 -189 -380 l-29 -35 -91 0 c-58 0
-93 4 -98 12 -4 6 -6 102 -6 212 1 121 -3 204 -8 207 -6 4 -5 10 3 14 10 7 10
12 0 23 -9 12 -9 16 1 19 11 4 11 8 0 20 -10 13 -10 17 0 20 11 4 11 8 0 20
-10 13 -10 17 0 20 11 4 11 8 0 20 -10 13 -10 17 0 20 11 4 11 8 0 20 -10 13
-10 17 0 20 11 4 11 8 0 20 -10 13 -10 17 0 20 11 4 11 8 0 20 -10 13 -10 17
0 20 11 4 11 8 0 20 -10 13 -10 17 0 20 11 4 11 8 0 20 -10 13 -10 17 0 20 11
4 11 8 0 20 -10 13 -10 17 0 20 11 4 11 8 0 20 -10 13 -10 17 0 20 11 4 11 8
0 20 -10 13 -10 17 0 20 11 4 11 8 0 20 -10 13 -10 17 0 20 11 4 11 8 0 20
-10 13 -10 17 0 20 11 4 11 8 0 20 -10 13 -10 17 0 20 11 4 11 8 0 20 -10 13
-10 17 0 20 11 4 11 8 0 20 -10 13 -10 17 0 20 11 4 11 8 0 20 -10 13 -10 17
0 20 11 4 11 8 0 20 -10 13 -10 17 0 20 11 4 11 8 0 20 -10 13 -10 17 0 20 11
4 11 8 0 20 -10 13 -10 17 0 20 11 4 11 8 0 20 -10 13 -10 17 0 20 10 4 10 8
-1 21 -7 10 -9 17 -4 17 12 0 14 138 2 146 -5 3 -7 9 -4 14 3 4 -3 14 -12 21
-12 11 -63 14 -222 14 -235 0 -253 -5 -265 -70 -4 -20 -4 -111 -1 -202 8 -194
14 -1262 7 -1280 -3 -10 -37 -13 -123 -13 -103 0 -119 2 -126 18 -5 9 -8 259
-7 555 0 296 -3 540 -8 543 -4 3 -6 10 -3 15 4 5 -5 14 -20 21 -21 9 -32 8
-60 -5 -19 -9 -36 -22 -37 -29 -1 -7 -2 -260 -2 -563 l-1 -550 -112 -3 c-107
-3 -112 -2 -124 20 -15 27 -18 197 -4 201 6 2 5 10 -3 19 -10 13 -10 17 0 20
11 4 11 8 0 20 -10 13 -10 17 0 20 11 4 11 8 0 20 -10 13 -10 17 0 20 11 4 11
8 0 20 -10 13 -10 17 0 20 11 4 11 8 0 20 -10 13 -10 17 0 20 11 4 11 8 0 20
-10 13 -10 17 0 20 11 4 11 8 0 20 -10 13 -10 17 0 20 11 4 11 8 0 20 -10 13
-10 17 0 20 11 4 11 8 0 20 -10 13 -10 17 0 20 11 4 11 8 0 20 -10 13 -10 17
0 20 11 4 11 8 0 20 -10 13 -10 17 0 20 11 4 11 8 0 20 -10 13 -10 17 0 20 10
4 10 8 -1 21 -7 10 -9 17 -4 17 6 0 10 45 10 108 1 121 -9 142 -62 142 -22 0
-40 -9 -60 -30 -26 -27 -29 -38 -36 -128 -3 -53 -1 -167 5 -252 6 -85 11 -249
11 -365 l0 -210 -121 -3 c-100 -2 -123 0 -134 13 -16 19 -21 403 -5 408 6 2 5
10 -3 19 -10 13 -10 17 0 20 11 4 11 8 0 20 -10 13 -10 17 0 20 11 4 11 8 0
20 -10 13 -10 17 0 20 10 4 10 8 -1 21 -9 12 -10 17 -2 17 7 0 9 4 6 10 -3 5
-8 20 -10 32 -6 31 -18 39 -54 40 -65 2 -66 0 -68 -335 -2 -166 -5 -308 -8
-315 -4 -11 -40 -13 -180 -11 -96 2 -179 5 -183 9 -4 3 -12 15 -19 27 -10 17
-10 22 0 26 9 3 9 7 -1 19 -10 13 -10 17 0 20 11 4 11 8 0 20 -10 13 -10 17 0
20 11 4 11 8 0 20 -10 13 -10 17 0 20 11 4 11 8 0 20 -10 13 -10 17 0 20 11 4
11 8 0 20 -10 13 -10 17 0 21 9 3 5 13 -15 33 l-27 29 -192 3 c-105 2 -202 1
-215 -3 -47 -11 -58 -48 -58 -190 l0 -130 -124 0 c-113 0 -124 2 -140 22 -22
28 -54 85 -57 101 -1 7 -14 28 -28 46 -14 19 -22 36 -19 39 3 4 -3 19 -13 34
-10 15 -20 37 -21 47 -2 11 -9 26 -15 34 -7 7 -12 22 -13 33 -1 10 -10 28 -20
39 -11 12 -13 20 -6 20 9 0 9 5 -1 23 -7 12 -11 26 -10 30 1 4 -3 18 -10 30
-7 12 -11 28 -9 35 1 8 -5 23 -15 33 -12 13 -13 19 -4 19 9 0 8 7 -4 25 -10
16 -12 25 -5 25 7 0 6 9 -5 24 -11 17 -12 26 -4 28 7 3 8 9 3 19 -5 8 -9 31
-8 51 1 21 -2 40 -7 43 -5 3 -7 12 -3 20 3 9 0 22 -6 29 -9 11 -9 15 1 18 11
4 11 8 0 20 -10 13 -10 17 0 20 11 4 11 8 0 20 -10 13 -10 17 0 20 10 4 10 8
-1 21 -9 12 -10 17 -2 17 7 0 9 5 6 11 -10 15 -13 69 -4 69 3 0 7 26 8 58 2
95 8 162 14 169 4 3 2 12 -4 20 -9 10 -8 13 1 13 7 0 10 7 7 15 -4 8 -2 17 2
20 5 3 8 18 7 35 -1 16 2 30 7 30 5 0 7 6 4 14 -3 7 0 19 6 25 6 6 7 11 3 11
-5 0 -3 7 4 15 7 8 9 15 5 15 -4 0 -2 7 5 15 7 8 9 15 5 15 -4 0 -2 7 5 15 7
8 9 15 5 15 -4 0 -2 7 5 15 7 8 9 15 5 15 -4 0 -2 6 4 14 9 11 9 16 0 21 -8 6
-8 9 1 15 9 6 8 14 -5 34 -30 46 -100 28 -123 -31 -6 -15 -27 -90 -47 -166
-35 -135 -36 -144 -42 -375 -7 -311 5 -445 56 -627 44 -161 81 -255 146 -377
55 -104 160 -254 196 -280 26 -19 26 -19 86 11 l60 31 1385 0 1385 0 43 -31
c41 -30 46 -31 69 -18 28 16 109 112 132 156 8 15 22 36 31 47 9 10 22 32 29
50 7 17 23 47 35 67 13 20 21 39 18 41 -2 3 2 11 11 18 8 7 15 16 15 21 0 4 5
20 12 36 6 15 12 31 13 36 2 4 4 9 5 12 1 3 4 10 5 15 1 6 4 13 5 18 1 4 2 10
1 15 0 4 3 7 8 7 8 0 25 53 24 78 0 6 4 12 9 12 6 0 8 6 5 14 -3 8 -3 17 1 20
7 8 14 41 16 74 1 12 4 22 8 22 4 0 7 8 7 18 0 9 2 33 5 52 15 97 19 130 20
185 0 33 5 63 10 67 6 4 5 12 -3 21 -9 12 -9 16 1 19 11 4 11 8 0 20 -10 13
-10 17 0 20 11 4 11 8 0 20 -10 13 -10 17 0 20 11 4 11 8 0 20 -10 13 -10 17
0 20 11 4 11 8 0 20 -10 13 -10 17 0 20 9 4 10 9 3 19 -6 8 -10 40 -9 71 1 32
-1 60 -5 62 -4 3 -6 23 -4 45 1 22 -1 42 -6 45 -5 4 -7 15 -4 25 3 10 0 22 -5
25 -6 3 -8 15 -5 25 3 10 0 22 -5 25 -6 3 -8 15 -5 25 3 10 0 22 -6 25 -5 4
-8 13 -4 22 3 8 -3 24 -12 34 -11 12 -13 20 -6 20 9 0 9 5 -1 23 -7 12 -11 26
-10 30 1 4 -3 18 -10 30 -6 12 -12 30 -13 40 -2 22 -59 88 -75 86 -3 0 -15 -4
-26 -9z m-558 -338 c7 -5 10 -219 10 -717 l-1 -710 -105 -3 c-58 -1 -111 2
-119 7 -12 8 -14 96 -14 561 0 335 -4 553 -10 557 -5 3 -4 9 4 13 10 7 10 12
0 23 -9 12 -9 16 1 19 11 4 11 8 0 20 -10 13 -10 17 0 20 10 4 10 8 -1 21 -7
10 -9 17 -4 17 11 0 15 98 4 105 -4 2 -6 18 -3 34 l4 30 92 4 c50 1 100 4 111
5 11 1 25 -2 31 -6z m-2053 -1239 c3 -5 6 -48 8 -98 l4 -90 -112 0 c-73 0
-116 4 -124 12 -17 17 -16 163 2 174 17 11 216 12 222 2z"/>
<path d="M958 2119 c-11 -6 -18 -22 -18 -42 0 -26 12 -43 67 -95 74 -70 229
-189 313 -240 163 -98 383 -189 563 -231 274 -64 601 -65 862 -1 109 27 257
81 368 134 276 134 607 394 547 431 -6 3 -8 11 -5 16 9 13 -40 32 -67 26 -13
-4 -41 -23 -63 -43 -158 -146 -378 -285 -579 -365 -61 -25 -239 -73 -326 -88
-284 -51 -645 -18 -915 84 -92 34 -233 103 -305 149 -35 23 -72 46 -82 51 -45
27 -147 106 -209 163 -55 50 -75 62 -101 62 -18 0 -41 -5 -50 -11z"/>
<path d="M142 1344 l-22 -15 0 -587 c0 -516 2 -590 16 -610 l15 -22 378 0
c350 0 380 1 401 18 34 28 35 76 3 102 -25 20 -37 20 -346 20 -176 -1 -320 0
-321 2 0 2 -6 13 -13 25 -10 17 -10 22 0 26 9 3 9 7 -1 19 -10 13 -10 17 0 20
11 4 11 8 0 20 -10 13 -10 17 0 20 11 4 11 8 0 20 -10 13 -10 17 0 20 11 4 11
8 0 20 -10 13 -10 17 0 20 11 4 11 8 0 20 -10 13 -10 17 0 20 11 4 11 8 0 20
-10 13 -10 17 0 20 11 4 11 8 0 20 -10 13 -10 17 0 20 11 4 11 8 0 20 -10 13
-10 17 0 20 11 4 11 8 0 20 -10 13 -10 17 0 20 11 4 11 8 0 20 -10 13 -10 17
0 20 11 4 11 8 0 20 -10 13 -10 17 0 20 11 4 11 8 0 20 -10 13 -10 17 0 20 11
4 11 8 0 20 -10 13 -10 17 0 20 11 4 11 8 0 20 -10 13 -10 17 0 20 11 4 11 8
0 20 -10 13 -10 17 0 20 11 4 11 8 0 20 -10 13 -10 17 0 20 11 4 11 8 0 20
-10 13 -10 17 0 20 11 4 11 8 0 20 -10 13 -10 17 0 20 11 4 11 8 0 20 -10 13
-10 17 0 20 11 4 11 8 0 20 -10 13 -10 17 0 20 11 4 11 8 0 20 -10 13 -10 17
0 20 11 4 11 8 0 20 -10 13 -10 17 0 20 11 4 11 8 0 20 -10 13 -10 17 0 20 11
4 11 8 0 20 -10 13 -10 17 0 20 11 4 11 8 0 20 -10 12 -10 17 -1 20 9 3 7 12
-6 31 -20 31 -67 37 -103 11z"/>
<path d="M2884 1350 c-12 -4 -25 -17 -30 -27 -5 -10 -10 -274 -11 -588 -3
-451 -1 -575 10 -595 10 -20 21 -26 54 -28 35 -3 44 1 55 20 15 29 20 99 7
114 -7 8 -6 13 3 16 11 4 11 8 0 20 -10 13 -10 17 0 20 11 4 11 8 0 20 -10 13
-10 17 0 20 11 4 11 8 0 20 -10 13 -10 17 0 20 11 4 11 8 0 20 -10 13 -10 17
0 20 11 4 11 8 0 20 -10 13 -10 17 0 20 11 4 11 8 0 20 -10 13 -10 17 0 20 11
4 11 8 0 20 -10 13 -10 17 0 20 11 4 11 8 0 20 -10 13 -10 17 0 20 11 4 11 8
0 20 -10 13 -10 17 0 20 11 4 11 8 0 20 -10 13 -10 17 0 20 11 4 11 8 0 20
-10 13 -10 17 0 20 11 4 11 8 0 20 -10 13 -10 17 0 20 11 4 11 8 0 20 -10 13
-10 17 0 20 11 4 11 8 0 20 -10 13 -10 17 0 20 11 4 11 8 0 20 -10 13 -10 17
0 20 11 4 11 8 0 20 -10 13 -10 17 0 20 11 4 11 8 0 20 -10 13 -10 17 0 20 11
4 11 8 0 20 -10 13 -10 17 0 21 10 3 10 7 1 17 -6 7 -10 18 -8 24 2 6 6 24 9
39 9 37 21 29 87 -58 85 -112 350 -424 431 -507 14 -16 37 -28 50 -28 27 0 68
26 68 42 0 6 8 18 18 27 10 9 36 39 57 66 22 28 42 52 45 55 3 3 44 52 90 110
47 58 95 116 108 130 13 14 57 69 99 123 42 53 82 97 89 97 19 0 24 -27 14
-81 -6 -29 -10 -239 -10 -468 0 -470 -1 -461 69 -461 30 0 42 6 55 24 11 17
12 27 5 32 -8 4 -7 9 2 14 10 7 10 12 0 23 -9 12 -9 16 1 19 10 4 10 8 -1 21
-9 12 -10 17 -2 17 8 0 9 5 1 19 -7 14 -6 21 3 24 9 3 9 7 -1 19 -10 13 -10
17 0 20 11 4 11 8 0 20 -10 13 -10 17 0 20 11 4 11 8 0 20 -10 13 -10 17 0 20
11 4 11 8 0 20 -10 13 -10 17 0 20 11 4 11 8 0 20 -10 13 -10 17 0 20 11 4 11
8 0 20 -10 13 -10 17 0 20 11 4 11 8 0 20 -10 13 -10 17 0 20 11 4 11 8 0 20
-10 13 -10 17 0 20 11 4 11 8 0 20 -10 13 -10 17 0 20 11 4 11 8 0 20 -10 13
-10 17 0 20 11 4 11 8 0 20 -10 13 -10 17 0 20 11 4 11 8 0 20 -10 13 -10 17
0 20 11 4 11 8 0 20 -10 13 -10 17 0 20 11 4 11 8 0 20 -10 13 -10 17 0 20 11
4 11 8 0 20 -10 13 -10 17 0 20 11 4 11 8 0 20 -10 13 -10 17 0 20 11 4 11 8
0 20 -10 13 -10 17 0 20 11 4 11 8 0 20 -10 13 -10 17 0 20 11 4 11 8 0 20
-10 13 -10 17 0 20 11 4 11 8 0 20 -10 13 -10 17 0 20 10 4 10 8 -1 21 -9 12
-10 17 -2 17 8 0 9 5 1 19 -7 14 -6 21 3 24 9 3 9 7 -1 19 -10 13 -10 17 0 20
11 4 11 8 0 20 -10 13 -10 17 0 20 11 4 11 8 0 20 -10 13 -10 17 -1 20 9 3 7
12 -7 31 -15 21 -28 26 -58 27 -33 0 -45 -7 -80 -43 -47 -48 -175 -200 -286
-337 -41 -51 -102 -125 -135 -165 -33 -40 -77 -93 -98 -118 -21 -26 -43 -44
-50 -41 -8 3 -31 28 -52 57 -22 29 -77 91 -124 140 -47 48 -86 94 -87 102 -3
18 -34 56 -132 160 -42 44 -76 83 -77 86 0 12 -117 147 -131 153 -19 7 -23 7
-50 -4z"/>
<path d="M1479 1291 l-24 -19 -3 -561 -2 -561 25 -25 c19 -20 31 -24 52 -19
32 7 56 32 49 51 -3 6 0 14 7 16 9 3 9 8 -1 19 -10 13 -10 17 0 20 11 4 11 8
0 20 -10 13 -10 17 0 20 11 4 11 8 0 20 -10 13 -10 17 0 20 11 4 11 8 0 20
-10 13 -10 17 0 20 11 4 11 8 0 20 -10 13 -10 17 0 20 11 4 11 8 0 20 -10 13
-10 17 0 20 10 4 10 8 -1 21 -9 11 -10 17 -2 17 6 0 11 8 11 18 0 10 33 51 74
91 55 55 78 71 89 65 8 -5 48 -46 89 -90 40 -45 145 -159 232 -253 134 -144
164 -171 188 -171 32 0 72 35 64 56 -3 8 -1 14 4 14 20 0 8 21 -40 70 -28 27
-48 50 -44 50 8 0 -65 79 -264 282 -77 80 -130 142 -126 149 12 21 258 254
390 373 53 47 63 80 33 112 -37 40 -69 32 -148 -37 -39 -33 -74 -66 -79 -72
-4 -7 -88 -88 -187 -181 -99 -93 -197 -187 -219 -209 l-39 -41 -19 23 c-13 17
-15 27 -8 36 8 10 8 15 -1 20 -8 6 -8 10 2 15 10 7 10 12 0 23 -9 12 -9 16 1
19 11 4 11 8 0 20 -10 13 -10 17 0 20 11 4 11 8 0 20 -10 13 -10 17 0 20 11 4
11 8 0 20 -10 13 -10 17 0 20 11 4 11 8 0 20 -10 13 -10 17 0 20 11 4 11 8 0
20 -10 13 -10 17 0 20 11 4 11 8 0 20 -10 13 -10 17 0 20 10 4 10 8 -1 21 -7
10 -9 17 -4 17 5 0 10 40 10 90 0 85 -1 92 -25 110 -31 25 -53 25 -83 1z"/>
</g>
</svg>
